<?xml version="1.0" encoding="utf-8"?>
<!-- Generator: Adobe Illustrator 25.0.1, SVG Export Plug-In . SVG Version: 6.00 Build 0)  -->
<svg version="1.0" id="katman_1" xmlns="http://www.w3.org/2000/svg" xmlns:xlink="http://www.w3.org/1999/xlink" x="0px" y="0px" viewBox="0 0 600 400" style="enable-background: new 0 0 600 400" xml:space="preserve">
<style>.st0 {
  fill-rule: evenodd;
  clip-rule: evenodd;
  fill: #0074ba;
}

.st1 {
  fill-rule: evenodd;
  clip-rule: evenodd;
  fill: #fdeb37;
}

.st2 {
  fill-rule: evenodd;
  clip-rule: evenodd;
  fill: #39912c;
}

.st3 {
  fill-rule: evenodd;
  clip-rule: evenodd;
  fill: #fff;
}

.st4 {
  fill-rule: evenodd;
  clip-rule: evenodd;
  fill: #f5b0b4;
}

</style>
<g>
	<circle class="st0" cx="300.1" cy="200.1" r="167.9"></circle>
	
		<ellipse transform="matrix(0.2298 -0.9732 0.9732 0.2298 36.3596 446.2184)" class="st1" cx="300.1" cy="200.1" rx="116.3" ry="116.3"></ellipse>
	<path class="st2" d="M291.3,173.4v-36.6l11.1-4.1l8.3,3.6l0,37.1h25.7l0,43l-13.7,0c-0.9-9.9-5.1-19.6-12.1-24.6v24.6l-19.3,0
		v-25.7c-3.9,2.6-9.2,9.8-11.9,25.7l-16.4,0l0-36.4l11.2-6.6L291.3,173.4L291.3,173.4z M302.3,188.4l0,26.4l6.9,0l0-24.5
		C306.5,188.9,304.6,188.4,302.3,188.4L302.3,188.4z M302.3,157.9v15.4h6.8l0-13.4L302.3,157.9L302.3,157.9z M302.3,134.3l0,21.9
		l6.8,2.1l0-21L302.3,134.3L302.3,134.3z M274.3,174.9l0,40h4c3.7-21.4,11.4-28.4,27.1-32.5c12.7,2.6,24.1,13.2,25.5,32.5l4.1,0
		l0-40L274.3,174.9z"></path>
	<path class="st2" d="M229.8,166.1c10.4-12.2,23-22.9,35.6-26.7c7.3-24.4,29.1-24.1,34.7-40.7c5.5,15.9,27.1,16.5,34.6,40.7
		c16.3,5.2,25.2,15.4,35.6,26.6l10.8-1.1l-3.9,9.8c6.5,10.1,8.8,21.6,5.3,33.6c13.9,10.2,21.7,23.8,21.3,40.5
		c-6.4-5.7-17.2-22.2-36.7-8.8c-12,8-19.6,13.5-30.7,2.7c-1.7,9.2-16.7,21.5-29.4,28.7c24,13.1,8.9,33.4-6.6,25.8
		c-19.3,7.3-29.2-12.9-7.1-25.7c-12.9-7.1-22.2-13.5-29.5-28.8c-10.1,9.7-20.3,8.3-40.3-8c-10.5-2-19.6,4.6-27,14.2
		c-1.3-17,5.4-32.4,21-40.6c-2.9-10.6-1.4-18.8,5.7-33.4l-3.9-9.8L229.8,166.1L229.8,166.1z M262.3,146.5
		c-20.9,10-30.1,27.6-32.9,46.1c-8.6,0.2-7.8,7.2-5.2,13.5c4.1-3,11.5-1.8,15-1.3C235,177.8,245.1,159.8,262.3,146.5L262.3,146.5z
		 M337.9,146.5c15.3,13.6,27.6,30.9,22.9,58.2c3.4-0.8,10.6-1.1,14.9,1.5c3.3-7.7,1.5-14.2-5.2-13.5
		C367.1,168.7,353.5,153.8,337.9,146.5L337.9,146.5z M372.7,212.9c-11.4,13.6-17.6,24.1-29.3,17.9c-0.5,4.1,3.3,6.7,7.4,6.5
		C362.2,236.5,370.4,222.2,372.7,212.9L372.7,212.9z M227.1,212.9c3.9,18.3,26.2,33.8,29.3,17.9
		C243.1,238.4,235.9,221.9,227.1,212.9L227.1,212.9z M384.2,215.4c-4.6,0.9-7.9,4.8-7.7,11.9c6.1-2.3,11.3,1.3,16.6,3.5
		c-2.8-4.4-5.4-5.6-8.1-7C382.6,222.1,383.5,218.9,384.2,215.4L384.2,215.4z M215.6,215.4c3.4,12.9-3.6,5.4-8.9,15.4
		c3.9-1.5,9.1-6,16.6-3.5C223.6,220.7,220.2,216.1,215.6,215.4L215.6,215.4z M300.1,274.9c-16.9,7.4-8.3,26.1,0,11.3
		C308.1,300.7,316.4,283,300.1,274.9L300.1,274.9z M271,230.5c2,17.3,7.7,25.1,29.2,35.4c15.8-8.6,30.7-18.8,28.9-35.1
		c35.7-18.6,34-61.5-0.8-84.4c-2.9-1.8-4.1-5.2-1.1-8.6c-5.6-11.3-20.4-21.7-27.1-22.8c-7,1.1-21.2,11.7-27.3,22.8
		c-0.3,0.5,4.7,3.1-1,8.7C233.2,167.4,239.6,219.7,271,230.5z"></path>
	<path class="st3" d="M196.4,268.1l-28.8,14.8l-3.8-7.4l10.2-5.2l-5.2-10.1l-10.2,5.2l-3.8-7.4l28.8-14.8l3.8,7.4l-12.1,6.2
		l5.2,10.1l12.1-6.2L196.4,268.1L196.4,268.1z M167.4,230l-1.2-7l-10.3,5.5L167.4,230L167.4,230z M148.1,234.3l-1.6-8.9l29.9-16.9
		l1.6,8.8l-5.5,3l1.9,10.7l6.2,0.8l1.5,8.5L148.1,234.3L148.1,234.3z M158.4,195.5l0.5-6.2c0.1-1.7-0.1-2.9-0.6-3.7
		c-0.6-0.8-1.5-1.3-2.8-1.4c-1.2-0.1-2.1,0.2-2.7,0.9c-0.6,0.7-1,1.9-1.1,3.4L151,195L158.4,195.5L158.4,195.5z M176.2,205.1
		l-32.3-2.5l1.2-15.4c0.3-4.1,1.3-7,2.9-8.9c1.6-1.8,3.9-2.6,7-2.4c1.8,0.1,3.3,0.7,4.6,1.6c1.2,0.9,2.2,2.3,3,4.1
		c0.6-1.4,1.5-2.3,2.4-2.8c1-0.5,2.6-0.7,5-0.6c0.7,0,1.5,0,2.7,0.1c2.6,0.1,4.1-0.2,4.6-1l1.1,0.1l-0.7,8.7
		c-1.2,0.3-2.8,0.5-4.7,0.4c-2-0.1-3.2-0.1-3.8-0.1c-1.3,0-2.2,0.4-2.9,1.1c-0.6,0.7-1,1.7-1.1,3.1l-0.4,5.5l12.1,0.9L176.2,205.1
		L176.2,205.1z M164.6,158.5l2-5.8c0.5-1.6,0.6-2.8,0.3-3.8c-0.3-0.9-1.1-1.6-2.4-2.1c-1.1-0.4-2.1-0.3-2.9,0.2
		c-0.8,0.5-1.4,1.5-1.9,3l-2,6.1L164.6,158.5L164.6,158.5z M179.5,172.2l-30.7-10.4l5-14.7c1.3-3.9,3-6.5,5-7.9
		c2-1.4,4.5-1.6,7.4-0.6c1.7,0.6,3.1,1.5,4,2.7c1,1.2,1.6,2.8,1.9,4.7c1-1.2,2-1.9,3.1-2.1c1.1-0.3,2.7-0.1,5,0.6
		c0.6,0.2,1.5,0.4,2.6,0.7c2.5,0.7,4.1,0.8,4.7,0.2l1.1,0.4l-2.8,8.2c-1.2,0-2.8-0.2-4.7-0.8c-1.9-0.6-3.1-0.9-3.6-1
		c-1.2-0.3-2.2-0.2-3,0.3c-0.8,0.5-1.4,1.4-1.9,2.8l-1.8,5.2l11.5,3.9L179.5,172.2L179.5,172.2z M186,126.2l4.1-5.8l-11.2-3.5
		L186,126.2L186,126.2z M169.5,115.4l19.6,28.3l5-7l-3.8-4.9l6.3-8.8l6,1.8l5.2-7.3l-33-9.4L169.5,115.4L169.5,115.4z M210.1,115.2
		l-21.2-24.5l6.8-5.9l11.6,4c1.9,0.7,3.7,1.3,5.5,2c1.8,0.7,3.5,1.4,5.2,2.1c-1.7-1.8-3.3-3.4-4.7-5c-1.4-1.6-2.7-3-3.8-4.2
		l-5.4-6.3l6.1-5.2l21.2,24.5l-6.8,5.9l-12-4.1c-1.4-0.5-3-1-4.7-1.7c-1.7-0.6-3.6-1.3-5.5-2.1c1.5,1.5,2.9,2.9,4.1,4.2
		c1.2,1.3,2.3,2.5,3.3,3.6l6.4,7.4L210.1,115.2L210.1,115.2z M238.3,56.9l7.7-2.6l6.5,19.1c0.7,2.1,1.6,3.5,2.7,4.1
		c1.1,0.6,2.6,0.6,4.4,0c1.8-0.6,3-1.5,3.5-2.7c0.5-1.2,0.4-2.8-0.3-4.9l-6.5-19.1l7.8-2.6l6.2,18.2c0.9,2.6,1.3,4.7,1.3,6.4
		c0,1.7-0.4,3.3-1.2,4.7c-0.8,1.5-2,2.8-3.4,3.9c-1.4,1.1-3.1,2-5.2,2.7c-2,0.7-3.9,1-5.7,1c-1.8,0-3.5-0.4-5-1
		c-1.5-0.7-2.8-1.7-3.8-3c-1-1.4-2-3.3-2.8-5.9L238.3,56.9L238.3,56.9z M280.7,77.5l-0.8-32.4l9-0.2l6.4,10.5c1,1.7,2,3.4,3,5.1
		c0.9,1.7,1.8,3.3,2.7,5c-0.2-2.4-0.3-4.7-0.4-6.9c-0.1-2.1-0.2-4-0.2-5.6l-0.2-8.3l8-0.2l0.8,32.4l-8.9,0.2l-6.6-10.8
		c-0.8-1.3-1.6-2.7-2.5-4.3c-0.9-1.6-1.9-3.3-2.9-5.1c0.2,2.1,0.4,4.1,0.5,5.9c0.1,1.8,0.2,3.4,0.2,4.8l0.2,9.8L280.7,77.5
		L280.7,77.5z M315.3,77.8l5.7-31.9l8.2,1.5l-5.7,31.9L315.3,77.8L315.3,77.8z M337,82.6l-0.2-34.2l8.3,2.8l-1,17.2
		c0,0.3,0,0.8-0.1,1.4c-0.1,2.1-0.2,3.8-0.4,5.1c0.4-0.6,0.8-1.2,1.3-2c0.5-0.8,1.2-1.8,2.1-3l10-14.7l8.3,2.8l-21,27.1L337,82.6
		L337,82.6z M357.2,90.5l21.1,13.6l3.6-5.6l-14.2-9.1l3.7-5.8l12.5,8l3.5-5.5l-12.5-8l3.1-4.8l13.7,8.8l3.6-5.6l-20.7-13.3
		L357.2,90.5L357.2,90.5z M401.1,100.7l4.3,4.5c1.1,1.2,2.2,1.9,3.2,2c1,0.1,2-0.3,2.9-1.2c0.9-0.8,1.2-1.7,1.1-2.7
		c-0.1-1-0.7-2-1.8-3.1l-4.4-4.6L401.1,100.7L401.1,100.7z M382,107.5l23.4-22.3l10.7,11.2c2.8,3,4.4,5.7,4.7,8.1
		c0.3,2.4-0.7,4.7-2.9,6.8c-1.3,1.3-2.7,2-4.2,2.3c-1.5,0.3-3.2,0.1-5-0.5c0.6,1.4,0.7,2.6,0.5,3.7c-0.3,1.1-1.2,2.4-2.9,4.1
		c-0.4,0.5-1.1,1.1-1.8,1.9c-1.8,1.9-2.6,3.2-2.3,4.1l-0.8,0.8l-6-6.3c0.5-1.1,1.5-2.4,2.9-3.8c1.4-1.4,2.3-2.3,2.6-2.7
		c0.8-1,1.2-1.9,1.1-2.8c-0.1-0.9-0.6-1.9-1.6-2.9l-3.8-4l-8.8,8.4L382,107.5L382,107.5z M412.7,126.1c-3.4,2-5.4,4.4-6.1,7.3
		c-0.7,2.8-0.1,6.1,1.8,9.9c2,4,4.4,6.6,7.1,8c2.7,1.4,5.5,1.3,8.4-0.1c1.2-0.6,2.3-1.5,3-2.5c0.8-1,1.3-2.2,1.6-3.5
		c0.3-1.3,0.1-4.1-0.6-8.3l-0.1-0.3c-0.1-0.4-0.2-1-0.3-1.7c-0.7-4.1-0.4-6.5,0.9-7.2c0.8-0.4,1.6-0.3,2.4,0.2
		c0.9,0.5,1.6,1.3,2.2,2.5c0.8,1.5,1,2.8,0.8,3.9c-0.2,1.1-1,2.1-2.2,2.9l3.6,6.9c2.9-1.5,4.7-3.7,5.4-6.6c0.7-2.9,0.1-6.1-1.7-9.6
		c-1.8-3.5-4.1-5.9-6.7-7.2c-2.7-1.2-5.4-1.1-8.2,0.3c-1.8,0.9-3.1,2.3-3.9,4c-0.8,1.8-1.1,3.9-0.8,6.4c0.2,1.7,0.5,3.8,0.9,6.2
		c0.5,2.4,0.7,3.9,0.7,4.6c0,0.4-0.1,0.9-0.4,1.2c-0.3,0.4-0.6,0.7-1.1,0.9c-0.9,0.5-1.8,0.4-2.7-0.2c-0.9-0.6-1.8-1.6-2.5-3.1
		c-0.9-1.8-1.2-3.3-0.8-4.7c0.4-1.3,1.4-2.5,3-3.4L412.7,126.1L412.7,126.1z M417,160.4l31.1-8.8l2.3,8l-31.1,8.8L417,160.4
		L417,160.4z M422,181.1l1,8.2l25.6-3.3l1.2,9.2l6.5-0.8l-3.4-26.6l-6.5,0.8l1.2,9.2L422,181.1L422,181.1z M424.1,202.3l32.1,4.1
		l-3.1,24.4l-6.6-0.8l2.1-16.2L443,213l-1.9,14.8l-6.4-0.8l1.9-14.8l-6.9-0.9l-2.1,16.7l-6.6-0.8L424.1,202.3L424.1,202.3z
		 M430.6,234.7l-2.9,7.4c-1.7-0.6-3.2-0.6-4.5,0c-1.2,0.6-2.2,1.8-3,3.7c-0.6,1.6-0.8,2.9-0.7,3.9c0.2,1.1,0.7,1.8,1.7,2.2
		c0.5,0.2,0.9,0.3,1.4,0.2c0.5-0.1,0.9-0.2,1.2-0.5c0.5-0.4,1.5-1.6,3-3.6c1.5-1.9,2.8-3.5,4-4.8c1.7-1.8,3.5-3,5.4-3.6
		c1.9-0.6,3.7-0.5,5.6,0.3c2.9,1.1,4.7,3.1,5.6,5.9c0.8,2.8,0.5,6.1-0.9,9.8c-1.4,3.6-3.5,6.1-6.1,7.6c-2.6,1.4-5.5,1.5-8.5,0.3
		l2.9-7.2c1.5,0.4,2.7,0.3,3.7-0.3c1-0.6,1.8-1.6,2.4-3.2c0.5-1.2,0.6-2.3,0.4-3.3c-0.2-1-0.7-1.6-1.5-1.9c-1.3-0.5-3.3,0.8-6,4.1
		c-0.5,0.6-0.8,1-1.1,1.3l-0.2,0.3c-2.7,3.3-4.7,5.3-5.8,6c-1.2,0.7-2.4,1-3.7,1.1c-1.3,0.1-2.6-0.1-3.9-0.7c-3-1.2-4.9-3.3-5.6-6.2
		c-0.8-3-0.3-6.5,1.3-10.6c1.5-3.9,3.6-6.5,6.2-7.9C423.7,233.6,426.9,233.5,430.6,234.7L430.6,234.7z M407.7,260.5l-4.1,7.2
		l28.1,16.1l4.1-7.2L407.7,260.5z"></path>
	<path class="st3" d="M256.2,349.1l5.4-19.7l-7-1.9l1.3-4.8l0.6,0.2c2.6,0.7,4.7,0.8,6.2,0.3c1.5-0.5,2.6-1.7,3.3-3.6l5.9,1.6
		l-8.3,29.9L256.2,349.1L256.2,349.1z M287.3,328.6c-1.3-0.1-2.3,0.3-3.1,1.1c-0.8,0.8-1.2,2.1-1.4,3.7c-0.1,1.6,0.1,2.9,0.8,3.8
		c0.7,0.9,1.6,1.4,2.9,1.5c1.3,0.1,2.4-0.3,3.2-1.1c0.8-0.8,1.2-2,1.3-3.7c0.1-1.6-0.1-2.8-0.8-3.8
		C289.6,329.3,288.6,328.7,287.3,328.6L287.3,328.6z M275.1,346.5l7,0.5c0.2,1,0.5,1.7,1,2.2c0.5,0.5,1.2,0.8,2.1,0.8
		c1.4,0.1,2.6-0.5,3.5-1.7c0.9-1.2,1.6-3.1,1.9-5.7c-0.9,0.7-1.9,1.1-2.9,1.4c-1,0.3-2.1,0.4-3.1,0.3c-3.1-0.2-5.4-1.3-7.1-3.3
		c-1.6-2-2.4-4.5-2.1-7.7c0.3-3.6,1.5-6.3,3.7-8.2c2.2-1.9,5.1-2.7,8.6-2.4c3.9,0.3,6.8,1.9,8.7,4.8c1.9,2.9,2.6,7,2.2,12.2
		c-0.4,5.3-1.9,9.3-4.4,12.1c-2.5,2.8-5.8,4-9.9,3.7c-2.9-0.2-5.1-1.1-6.8-2.8C276,351.2,275.1,349.1,275.1,346.5L275.1,346.5z
		 M311.6,328.7c-1.3,0.1-2.3,0.6-2.9,1.6c-0.7,0.9-0.9,2.2-0.8,3.8c0.1,1.6,0.6,2.8,1.4,3.6c0.8,0.8,1.8,1.2,3.1,1.1
		c1.3-0.1,2.3-0.6,3-1.6c0.6-0.9,0.9-2.2,0.8-3.8c-0.1-1.6-0.6-2.8-1.4-3.6C313.9,329,312.9,328.6,311.6,328.7L311.6,328.7z
		 M302.2,348.2l7-0.5c0.3,0.9,0.8,1.6,1.4,2c0.6,0.4,1.3,0.6,2.2,0.5c1.4-0.1,2.5-0.9,3.2-2.2c0.7-1.4,1.1-3.3,1-5.9
		c-0.8,0.8-1.7,1.4-2.7,1.9c-1,0.4-2,0.7-3,0.8c-3.1,0.2-5.6-0.5-7.5-2.2c-1.9-1.7-3-4.1-3.3-7.3c-0.3-3.6,0.5-6.4,2.4-8.6
		c1.9-2.2,4.6-3.4,8.2-3.7c3.9-0.3,7,0.9,9.3,3.5c2.3,2.6,3.7,6.5,4.1,11.7c0.4,5.3-0.4,9.5-2.5,12.6c-2.1,3.1-5.1,4.8-9.3,5.1
		c-2.9,0.2-5.2-0.4-7.1-1.7C303.8,352.8,302.6,350.8,302.2,348.2L302.2,348.2z M332.4,352.3c-0.5-2.5-0.5-4.7,0-6.8
		c0.5-2.1,1.5-4.2,3.1-6.5c0.5-0.7,1.3-1.7,2.4-2.9c1.1-1.3,1.8-2.2,2.3-2.8c0.8-1.1,1.3-2.2,1.5-3.2c0.3-1,0.3-1.9,0-2.8
		c-0.4-1.3-1-2.2-1.8-2.8c-0.8-0.5-1.9-0.6-3.1-0.3c-1.3,0.4-2.2,1.1-2.6,2.2c-0.4,1.1-0.4,2.6,0.1,4.5l-7,1.9
		c-0.9-3.5-0.7-6.5,0.8-9.1c1.4-2.6,3.8-4.4,7.2-5.3c3.3-0.9,6.3-0.8,8.8,0.4c2.6,1.2,4.2,3.3,5,6.1c0.4,1.6,0.5,3.2,0.3,4.7
		c-0.3,1.5-1,3.2-2.1,5.1c-0.6,1-1.7,2.4-3.2,4.3c-1.6,1.9-2.6,3.4-3.2,4.6l12.2-3.4l1.7,6L332.4,352.3z"></path>
	<path class="st3" d="M438.1,286.4c2,0,3.7-1.6,3.7-3.7c0-2-1.6-3.7-3.7-3.7c-2,0-3.7,1.6-3.7,3.7
		C434.5,284.7,436.1,286.4,438.1,286.4z"></path>
	<path class="st3" d="M451.3,151.4c1.3-1.5,3.7-1.6,5.2-0.3c1.5,1.3,1.6,3.7,0.3,5.2c-1.3,1.5-3.7,1.6-5.2,0.3
		C450,155.2,449.9,152.9,451.3,151.4z"></path>
	<path class="st3" d="M322.7,43.1c-0.7-1.9,0.2-4,2.1-4.7c1.9-0.7,4,0.2,4.7,2.1c0.7,1.9-0.2,4-2.1,4.7
		C325.6,45.9,323.4,44.9,322.7,43.1z"></path>
	<path class="st3" d="M242,52.6c-1.6-1.3-1.8-3.6-0.5-5.1c1.3-1.6,3.6-1.8,5.1-0.5c1.6,1.3,1.8,3.6,0.5,5.1
		C245.9,53.6,243.5,53.8,242,52.6z"></path>
	<path class="st3" d="M252.1,49.1c-1.6-1.3-1.8-3.6-0.5-5.1c1.3-1.6,3.6-1.8,5.1-0.5c1.6,1.3,1.8,3.6,0.5,5.1
		C256,50.1,253.7,50.3,252.1,49.1z"></path>
	<rect x="329" y="221.2" class="st4" width="0.2" height="1"></rect>
</g>
</svg>
